<svg xmlns="http://www.w3.org/2000/svg" xmlns:xlink="http://www.w3.org/1999/xlink" width="40" height="40" viewBox="0 0 40 40" version="1.1">
  <g transform="translate(19.5,20.5) " fill="#268ecd">
    <path d="M0.8431096240966803,-9.145905674716758 L0.15693772409667875,-9.145905674716758 C-0.3394054759033197,-9.145905674716758 -0.7606340759033189,-9.509966574716758 -0.8325189759033194,-10.00107677471676 L-1.8795201759033198,-17.15408372471676 C-2.0718659759033216,-18.46817109471676 -1.1625147759033219,-19.68937647771676 0.1515726240966799,-19.88172229971676 C0.26689572409668116,-19.898602399716758 0.38329352409667905,-19.90707595171676 0.4998455240966813,-19.90707595171676 C1.8279826240966806,-19.90707595171676 2.9046504240966797,-18.830408124716758 2.9046504240966797,-17.502271054716758 C2.9046504240966797,-17.38574318471676 2.8961806240966794,-17.26936941471676 2.8793081240966814,-17.154069534716758 L1.832571424096681,-10.00111157471676 C1.7607019240966792,-9.50998567471676 1.3394662240966788,-9.145905674716758 0.8431096240966803,-9.145905674716758 z" opacity="0.915"/>
    <path d="M-3.52583477590332,-8.158989174716758 L-4.119986775903321,-7.815938474716759 C-4.549843875903321,-7.567748074716759 -5.096693675903321,-7.672426674716759 -5.404503375903321,-8.061821974716759 L-9.88769572590332,-13.733293134716758 C-10.71126792590332,-14.775154754716759 -10.53430939590332,-16.28738765471676 -9.49244777590332,-17.110959864716758 C-9.40101670590332,-17.18323442471676 -9.30445220590332,-17.248766274716758 -9.20351784590332,-17.30703724471676 C-8.05332277590332,-17.97106264471676 -6.5826064759033205,-17.576944224716758 -5.918580975903321,-16.426749124716757 C-5.860322675903321,-16.32583666471676 -5.80947597590332,-16.220823324716758 -5.766442575903321,-16.112539034716757 L-3.09654917590332,-9.39431947471676 C-2.9132429759033194,-8.93306837471676 -3.0959967759033202,-8.407168574716758 -3.52583477590332,-8.158989174716758 z" opacity="0.84"/>
    <path d="M-6.815975975903321,-5.120026674716758 L-7.15902667590332,-4.525874674716759 C-7.40720607590332,-4.096036674716757 -7.933105875903321,-3.91328287471676 -8.394356975903321,-4.096589074716757 L-15.11257654590332,-6.766482474716758 C-16.34679539590332,-7.256974474716758 -16.94970514590332,-8.65512877471676 -16.45921318590332,-9.889347674716758 C-16.41617983590332,-9.997631974716759 -16.36533307590332,-10.102645274716759 -16.307074755903322,-10.203557754716758 C-15.64307414590332,-11.35370991471676 -14.172412745903321,-11.747813614716758 -13.02226057590332,-11.08381300471676 C-12.92132620590332,-11.025542034716759 -12.824761715903321,-10.960010184716758 -12.73333064590332,-10.88773562471676 L-7.06185947590332,-6.404543374716759 C-6.67246417590332,-6.096733574716758 -6.56778557590332,-5.549883774716758 -6.815975975903321,-5.120026674716758 z" opacity="0.76"/>
    <path d="M-8.14582707590332,-0.8430326747167598 L-8.14582707590332,-0.1568915747167594 C-8.14582707590332,0.3394650252832463 -8.509907075903321,0.7607007252832396 -9.001032995903321,0.8325702252832414 L-16.15418243590332,1.879334925283242 C-17.46823192590332,2.0716279252832415 -18.68936379790332,1.1622646252832425 -18.88165680630332,-0.1517848747167605 C-18.89852817857332,-0.26707667471675833 -18.90699733335132,-0.3834423747167577 -18.90699733335132,-0.4999621747167602 C-18.90699733335132,-1.8280067747167585 -17.83040440590332,-2.9045997747167576 -16.502359725903318,-2.9045997747167576 C-16.38583995590332,-2.9045997747167576 -16.26947428590332,-2.896130574716757 -16.15418243590332,-2.8792591747167577 L-9.001032995903321,-1.832494474716757 C-8.509907075903321,-1.7606249747167588 -8.14582707590332,-1.3393892747167584 -8.14582707590332,-0.8430326747167598 z" opacity="0.68"/>
    <path d="M-7.15910407590332,3.525756825283242 L-6.816053375903321,4.119908925283241 C-6.56786307590332,4.54976602528324 -6.67254157590332,5.09661572528324 -7.06193697590332,5.404425525283241 L-12.733408065903319,9.88761782528324 C-13.775269685903321,10.71119002528324 -15.28750259590332,10.534231525283243 -16.11107479590332,9.492369825283241 C-16.18334935590332,9.40093882528324 -16.24888120590332,9.304374325283241 -16.30715217590332,9.203439925283242 C-16.97117757590332,8.05324482528324 -16.57705916590332,6.582528525283241 -15.42686405590332,5.918503125283241 C-15.32595159590332,5.860244825283242 -15.22093825590332,5.80939802528324 -15.11265397590332,5.766364725283243 L-8.39443437590332,3.0964713252832397 C-7.933183275903321,2.9131651252832427 -7.40728347590332,3.095918825283242 -7.15910407590332,3.525756825283242 z" opacity="0.6"/>
    <path d="M-4.12014157590332,6.815898025283243 L-3.5259796759033204,7.158954525283242 C-3.0961459759033207,7.407131425283243 -2.9133909759033205,7.933023725283242 -3.096689275903321,8.394272525283242 L-5.76659567590332,15.112782325283241 C-6.257052075903321,16.34695902528324 -7.655143475903321,16.94986342528324 -8.88932017590332,16.45940692528324 C-8.997655465903321,16.416354925283244 -9.10271670590332,16.36548192528324 -9.20367268590332,16.30719042528324 C-10.35389488590332,15.64305692528324 -10.74794767590332,14.17223112528324 -10.083814245903321,13.022008925283238 C-10.02555579590332,12.921110325283244 -9.96004203590332,12.824578725283239 -9.88779054590332,12.733176825283245 L-5.404658275903321,7.061781625283242 C-5.09684847590332,6.672386325283242 -4.5499986759033195,6.567707725283242 -4.12014157590332,6.815898025283243 z" opacity="0.52"/>
    <path d="M0.15685232409667904,8.14590402528324 L0.8430242240966807,8.14590402528324 C1.33936752409668,8.14590402528324 1.7605961240966792,8.509964925283242 1.8324810240966798,9.00107512528324 L2.879482124096679,16.154082025283245 C3.071827924096681,17.468169425283243 2.162476724096681,18.689374825283238 0.8483894240966806,18.881720625283243 C0.7330662240966781,18.898600725283238 0.6166685240966815,18.90707432528324 0.5001165240966791,18.90707432528324 C-0.8280205759033201,18.90707432528324 -1.9046883759033193,17.830406425283243 -1.9046883759033193,16.502269425283238 C-1.9046883759033193,16.385741525283244 -1.8962186759033202,16.26936772528324 -1.879346075903321,16.154067825283242 L-0.8326094759033219,9.001109925283242 C-0.7607399759033201,8.509984025283241 -0.33950427590331966,8.14590402528324 0.15685232409667904,8.14590402528324 z" opacity="0.44"/>
    <path d="M4.52573722409668,7.1590125252832415 L5.120207024096679,6.815841725283242 C5.550057724096678,6.567701125283243 6.0968634240966795,6.672393925283242 6.404654324096679,7.061765425283241 L10.88778602409668,12.733159925283239 C11.711378924096678,13.775047725283244 11.534415924096681,15.287318625283241 10.49252822409668,16.11091142528324 C10.401072924096681,16.183205125283244 10.304481624096681,16.24875272528324 10.20351852409668,16.30703552528324 C9.053190624096679,16.971084325283243 7.582347724096678,16.57687712528324 6.9182990240966795,15.426549225283239 C6.86005252409668,15.325649225283243 6.80921502409668,15.220650225283244 6.766187824096679,15.112381625283241 L4.096382224096679,8.394382825283241 C3.913064824096679,7.933103425283242 4.095852924096679,7.407172625283241 4.52573722409668,7.1590125252832415 z" opacity="0.36"/>
    <path d="M7.815976724096679,4.12002502528324 L8.159027424096681,3.525873025283243 C8.407206724096678,3.0960349252832415 8.93310662409668,2.9132812252832423 9.394357624096681,3.096587425283243 L16.112577224096682,5.766480825283242 C17.346796124096677,6.256972825283242 17.949705824096682,7.65512712528324 17.45921392409668,8.889346025283242 C17.41618052409668,8.997630325283243 17.36533382409668,9.102643625283243 17.30707542409668,9.203556025283241 C16.64307482409668,10.353708225283242 15.172413424096682,10.74781192528324 14.022261324096682,10.083811325283243 C13.921326924096682,10.025540325283242 13.824762424096683,9.960008525283243 13.733331324096682,9.887733925283243 L8.06186022409668,5.40454162528324 C7.67246492409668,5.09673192528324 7.56778632409668,4.54988212528324 7.815976724096679,4.12002502528324 z" opacity="0.28" />
    <path d="M9.145827824096681,-0.15696897471675797 L9.145827824096681,-0.8431100747167584 C9.145827824096681,-1.3394667747167581 9.509907824096679,-1.7607024747167586 10.00103372409668,-1.8325719747167604 L17.154183124096683,-2.8793366747167575 C18.46823262409668,-3.0716296747167604 19.689364524096682,-2.162266374716758 19.88165752409668,-0.8482168747167584 C19.89852892409668,-0.7329249747167594 19.90699802409668,-0.6165592747167601 19.90699802409668,-0.5000395747167588 C19.90699802409668,0.8280051252832408 18.83040512409668,1.9045980252832422 17.50236042409668,1.9045980252832422 C17.38584072409668,1.9045980252832422 17.26947502409668,1.896128925283243 17.154183124096683,1.87925752528324 L10.00103372409668,0.8324928252832429 C9.509907824096679,0.7606233252832411 9.145827824096681,0.3393876252832406 9.145827824096681,-0.15696897471675797 z" opacity="0.2" />
    <path d="M8.15906042409668,-4.5257684747167595 L7.81601542409668,-5.119910574716759 C7.567825024096681,-5.549767674716758 7.672503624096681,-6.0966174747167585 8.061898924096681,-6.4044271747167585 L13.73344602409668,-10.88767950471676 C14.775207924096676,-11.71117292471676 16.287296124096677,-11.53423131471676 17.110789624096682,-10.492469374716759 C17.18308722409668,-10.401009114716759 17.248637124096682,-10.304411714716759 17.306920624096676,-10.203441614716759 C17.970902924096677,-9.05316117471676 17.576680324096678,-7.582410674716758 16.42639992409668,-6.918428474716759 C16.325531024096676,-6.860203374716759 16.220565524096678,-6.809382874716759 16.112332324096677,-6.766368074716759 L9.39440282409668,-4.09648777471676 C8.933149524096681,-3.9131736747167594 8.40724222409668,-4.095926174716759 8.15906042409668,-4.5257684747167595 z" opacity="0.11" />
    <path d="M5.1201296240966805,-7.815804774716758 L4.525674824096679,-8.15896677471676 C4.09578402409668,-8.40713067471676 3.9129978240966814,-8.933072874716759 4.0963272240966795,-9.394355574716759 L6.76647212409668,-16.11281797471676 C7.256985824096681,-17.34701968471676 8.65514382409668,-17.94989798471676 9.88934552409668,-17.45938434471676 C9.99765842409668,-17.41633714471676 10.102698324096679,-17.365472314716758 10.20363472409668,-17.30719208471676 C11.353856924096679,-16.64305864471676 11.74790972409668,-15.17223279471676 11.083776224096681,-14.022010604716758 C11.025517824096681,-13.921111964716758 10.96000402409668,-13.824580374716758 10.88775252409668,-13.733178494716759 L6.404576824096679,-8.06172837471676 C6.096785924096679,-7.672356874716758 5.549980224096679,-7.56766407471676 5.1201296240966805,-7.815804774716758 z" />
  </g>
</svg>
